<svg width="335" height="44" viewBox="0 0 335 44" fill="none" xmlns="http://www.w3.org/2000/svg">
<rect width="335" height="44" rx="6" fill="black"/>
<path d="M121.033 28.1953C123.783 28.1953 125.439 26.8594 125.439 24.7578V24.75C125.439 22.9922 124.416 22.0391 122.072 21.5547L120.853 21.3047C119.494 21.0234 118.877 20.5547 118.877 19.7578V19.75C118.877 18.8516 119.697 18.2344 121.017 18.2266C122.283 18.2266 123.15 18.8125 123.283 19.7969L123.299 19.8906H125.228L125.221 19.7578C125.103 17.8281 123.494 16.5312 121.033 16.5312C118.603 16.5312 116.861 17.875 116.853 19.8594V19.8672C116.853 21.5469 117.947 22.5781 120.166 23.0391L121.377 23.2891C122.83 23.5938 123.416 24.0469 123.416 24.8906V24.8984C123.416 25.8672 122.525 26.5 121.103 26.5C119.689 26.5 118.697 25.8984 118.549 24.9297L118.533 24.8359H116.603L116.611 24.9531C116.744 26.9766 118.447 28.1953 121.033 28.1953ZM128.144 18.5312C128.753 18.5312 129.222 18.0469 129.222 17.4688C129.222 16.875 128.753 16.3984 128.144 16.3984C127.535 16.3984 127.058 16.875 127.058 17.4688C127.058 18.0469 127.535 18.5312 128.144 18.5312ZM127.168 28H129.113V19.7188H127.168V28ZM134.864 30.8984C137.263 30.8984 138.771 29.6406 138.771 27.7656V19.7188H136.825V21.125H136.779C136.31 20.1719 135.404 19.5469 134.232 19.5469C132.138 19.5469 130.786 21.1562 130.786 23.7734V23.7812C130.786 26.3594 132.122 27.9531 134.2 27.9531C135.388 27.9531 136.325 27.3906 136.786 26.5078H136.825V27.7031C136.825 28.7578 136.13 29.4297 134.864 29.4297C133.849 29.4297 133.185 29.0703 132.974 28.5938L132.95 28.5312H131.036L131.052 28.6016C131.286 29.8984 132.669 30.8984 134.864 30.8984ZM134.81 26.4531C133.56 26.4531 132.771 25.4453 132.771 23.8125V23.8047C132.771 22.1953 133.56 21.1875 134.81 21.1875C136.013 21.1875 136.833 22.2109 136.833 23.8125V23.8203C136.833 25.4297 136.021 26.4531 134.81 26.4531ZM140.725 28H142.671V23.1953C142.671 22 143.382 21.1875 144.499 21.1875C145.608 21.1875 146.155 21.8516 146.155 23.0312V28H148.1V22.6406C148.1 20.7188 147.061 19.5469 145.241 19.5469C143.983 19.5469 143.14 20.125 142.71 21.0156H142.671V19.7188H140.725V28ZM154.619 18.5312C155.229 18.5312 155.697 18.0469 155.697 17.4688C155.697 16.875 155.229 16.3984 154.619 16.3984C154.01 16.3984 153.533 16.875 153.533 17.4688C153.533 18.0469 154.01 18.5312 154.619 18.5312ZM153.643 28H155.588V19.7188H153.643V28ZM157.605 28H159.551V23.1953C159.551 22 160.262 21.1875 161.379 21.1875C162.488 21.1875 163.035 21.8516 163.035 23.0312V28H164.98V22.6406C164.98 20.7188 163.941 19.5469 162.121 19.5469C160.863 19.5469 160.019 20.125 159.59 21.0156H159.551V19.7188H157.605V28ZM172.085 28H174.116L175.741 21.9453H175.78L177.413 28H179.46L181.702 19.7188H179.78L178.382 26.0781H178.335L176.718 19.7188H174.851L173.234 26.0781H173.195L171.796 19.7188H169.843L172.085 28ZM184.063 18.5312C184.673 18.5312 185.141 18.0469 185.141 17.4688C185.141 16.875 184.673 16.3984 184.063 16.3984C183.454 16.3984 182.977 16.875 182.977 17.4688C182.977 18.0469 183.454 18.5312 184.063 18.5312ZM183.087 28H185.032V19.7188H183.087V28ZM190.127 28.1641C190.518 28.1641 190.862 28.125 191.088 28.0938V26.6328C190.956 26.6406 190.807 26.6641 190.62 26.6641C189.909 26.6641 189.549 26.4062 189.549 25.5938V21.2188H191.088V19.7188H189.549V17.6172H187.573V19.7188H186.401V21.2188H187.573V25.7578C187.573 27.4609 188.393 28.1641 190.127 28.1641ZM192.84 28H194.785V23.2266C194.785 22.0234 195.504 21.1875 196.606 21.1875C197.723 21.1875 198.363 21.9531 198.363 23.2266V28H200.309V22.8438C200.309 20.8438 199.168 19.5469 197.387 19.5469C196.145 19.5469 195.262 20.1172 194.832 21.1094H194.785V16.7266H192.84V28ZM205.218 28H207.328L208.273 25.0859H212.437L213.382 28H215.492L211.492 16.7266H209.218L205.218 28ZM210.335 18.7344H210.375L211.929 23.5312H208.781L210.335 18.7344ZM216.868 30.7344H218.814V26.6016H218.853C219.321 27.5703 220.267 28.1641 221.446 28.1641C223.525 28.1641 224.853 26.5234 224.853 23.8672V23.8594C224.853 21.1875 223.525 19.5469 221.423 19.5469C220.236 19.5469 219.329 20.1562 218.853 21.1484H218.814V19.7188H216.868V30.7344ZM220.845 26.5234C219.642 26.5234 218.798 25.4844 218.798 23.8672V23.8594C218.798 22.2344 219.642 21.1875 220.845 21.1875C222.087 21.1875 222.868 22.2031 222.868 23.8594V23.8672C222.868 25.5 222.087 26.5234 220.845 26.5234ZM226.464 30.7344H228.409V26.6016H228.448C228.917 27.5703 229.862 28.1641 231.042 28.1641C233.12 28.1641 234.448 26.5234 234.448 23.8672V23.8594C234.448 21.1875 233.12 19.5469 231.018 19.5469C229.831 19.5469 228.925 20.1562 228.448 21.1484H228.409V19.7188H226.464V30.7344ZM230.44 26.5234C229.237 26.5234 228.393 25.4844 228.393 23.8672V23.8594C228.393 22.2344 229.237 21.1875 230.44 21.1875C231.682 21.1875 232.464 22.2031 232.464 23.8594V23.8672C232.464 25.5 231.682 26.5234 230.44 26.5234ZM236.114 28H238.059V16.7266H236.114V28ZM243.717 28.1641C245.881 28.1641 247.1 26.8828 247.358 25.6094L247.381 25.5234H245.561L245.545 25.5781C245.358 26.1328 244.725 26.6484 243.756 26.6484C242.49 26.6484 241.694 25.7891 241.662 24.3359H247.459V23.7109C247.459 21.2109 245.99 19.5469 243.623 19.5469C241.256 19.5469 239.733 21.2656 239.733 23.875V23.8828C239.733 26.5156 241.233 28.1641 243.717 28.1641ZM243.647 21.0703C244.678 21.0703 245.428 21.7266 245.569 23.0391H241.686C241.842 21.7656 242.615 21.0703 243.647 21.0703Z" fill="white"/>
<path d="M99.1523 16.9023C99.5977 16.3643 99.9224 15.6128 99.9224 14.8613C99.9224 14.7593 99.9131 14.6572 99.8945 14.5737C99.1616 14.6016 98.2803 15.0654 97.7515 15.687C97.334 16.1602 96.9536 16.9023 96.9536 17.6631C96.9536 17.7744 96.9722 17.8857 96.9814 17.9229C97.0278 17.9321 97.1021 17.9414 97.1763 17.9414C97.835 17.9414 98.6606 17.4961 99.1523 16.9023ZM99.6719 18.0991C98.5679 18.0991 97.668 18.7671 97.1021 18.7671C96.4897 18.7671 95.6826 18.1362 94.7271 18.1362C92.9087 18.1362 91.0625 19.6392 91.0625 22.478C91.0625 24.2407 91.749 26.1055 92.5933 27.3115C93.3169 28.332 93.9478 29.167 94.8569 29.167C95.7568 29.167 96.1558 28.564 97.2783 28.564C98.4194 28.564 98.6699 29.1484 99.6719 29.1484C100.655 29.1484 101.314 28.2393 101.936 27.3486C102.631 26.3281 102.919 25.3262 102.938 25.2798C102.873 25.2612 100.989 24.4912 100.989 22.3296C100.989 20.4556 102.474 19.6113 102.557 19.5464C101.574 18.1362 100.08 18.0991 99.6719 18.0991Z" fill="white"/>
</svg>
