<svg width="18" height="18" viewBox="0 0 18 18" fill="none" xmlns="http://www.w3.org/2000/svg">
<path d="M0.5 2C0.5 1.17157 1.17157 0.5 2 0.5H12.7273C13.5557 0.5 14.2273 1.17157 14.2273 2V16.6818H2C1.17157 16.6818 0.5 16.0102 0.5 15.1818V2Z" stroke="#333333"/>
<path d="M14.4092 3.77271H16.0001C16.8285 3.77271 17.5001 4.44428 17.5001 5.2727V15.1818C17.5001 16.0102 16.8285 16.6818 16.0001 16.6818H14.4092V3.77271Z" stroke="#333333"/>
<path d="M7.36355 4.90918C7.27264 6.18191 6.49082 8.72736 4.09082 8.72736C5.18173 8.63645 7.36355 9.38191 7.36355 13.091C7.36355 11.6365 8.01809 8.72736 10.6363 8.72736C8.23627 8.72736 7.45446 6.18191 7.36355 4.90918Z" stroke="#333333" stroke-linejoin="round"/>
</svg>
