<svg width="178" height="15" viewBox="0 0 178 15" fill="none" xmlns="http://www.w3.org/2000/svg">
<path d="M0.184372 12.84H12.1844V0.84H0.184372V12.84Z"/>
<path d="M17.58 11.028C17.28 11.028 16.92 11.076 16.584 11.172L19.044 8.736C20.04 7.74 20.88 6.828 20.88 5.52C20.88 3.96 19.716 3.048 18.216 3.048C16.716 3.048 15.552 3.924 15.324 5.544L16.404 5.724C16.404 4.716 17.148 3.996 18.156 3.996C19.068 3.996 19.74 4.488 19.776 5.544C19.776 6.576 19.104 7.332 18.18 8.316L15.144 11.232V12H21.048V11.028H17.58ZM28.3044 7.62C28.3044 4.488 26.8884 3.06 25.0764 3.06C23.2524 3.06 21.8484 4.488 21.8484 7.62C21.8484 10.74 23.2524 12.168 25.0764 12.168C26.8884 12.168 28.3044 10.74 28.3044 7.62ZM27.2004 7.62C27.2004 10.356 26.1924 11.28 25.0764 11.28C23.9604 11.28 22.9644 10.356 22.9644 7.62C22.9644 4.872 23.9604 3.96 25.0764 3.96C26.1924 3.96 27.2004 4.872 27.2004 7.62ZM31.5168 11.028C31.2168 11.028 30.8568 11.076 30.5208 11.172L32.9808 8.736C33.9768 7.74 34.8168 6.828 34.8168 5.52C34.8168 3.96 33.6528 3.048 32.1528 3.048C30.6528 3.048 29.4888 3.924 29.2608 5.544L30.3408 5.724C30.3408 4.716 31.0848 3.996 32.0928 3.996C33.0048 3.996 33.6768 4.488 33.7128 5.544C33.7128 6.576 33.0408 7.332 32.1168 8.316L29.0808 11.232V12H34.9848V11.028H31.5168ZM39.9973 11.112V3.156H39.1213L36.7573 5.196L37.3453 5.904L38.9413 4.476C38.9293 4.56 38.9293 4.668 38.9293 4.776V11.112H36.9733V12H41.7253V11.112H39.9973ZM50.3693 7.272C52.6133 7.272 54.1373 6.348 54.1373 4.908C54.1373 3.48 52.6133 2.556 50.3693 2.556C48.1253 2.556 46.6133 3.48 46.6133 4.908C46.6133 6.348 48.1253 7.272 50.3693 7.272ZM50.3693 3.348C52.0133 3.348 53.1293 3.948 53.1293 4.908C53.1293 5.868 52.0133 6.48 50.3693 6.48C48.7373 6.48 47.6213 5.868 47.6213 4.908C47.6213 3.948 48.7373 3.348 50.3693 3.348ZM55.2653 8.292H45.5213V9.108H49.8773V12.9H50.8613V9.108H55.2653V8.292ZM66.4364 6.372H64.6604V2.124H63.6764V12.912H64.6604V7.188H66.4364V6.372ZM57.8204 3.972H61.8404V3.156H56.8364V10.224H57.6884C59.7044 10.224 61.1444 10.164 62.7764 9.84L62.6684 9.024C61.1204 9.312 59.7404 9.384 57.8204 9.384V3.972ZM77.2954 6.372H75.5194V2.124H74.5354V12.912H75.5194V7.188H77.2954V6.372ZM68.6794 3.972H72.6994V3.156H67.6954V10.224H68.5474C70.5634 10.224 72.0034 10.164 73.6354 9.84L73.5274 9.024C71.9794 9.312 70.5994 9.384 68.6794 9.384V3.972ZM77.9665 12.168H79.0585V11.04H77.9665V12.168ZM88.6237 12H89.7997L86.8117 3.204H85.5757L82.5877 12H83.7157L84.5677 9.312H87.7837L88.6237 12ZM84.8437 8.424L85.2757 7.08C85.5997 6.072 85.8757 5.16 86.1517 4.104H86.1997C86.4877 5.124 86.7637 6.072 87.0877 7.08L87.5077 8.424H84.8437ZM91.8568 12V2.448H90.7648V12H91.8568ZM94.958 12V2.448H93.866V12H94.958ZM99.4709 12H100.563V7.812C100.983 6.696 101.679 6.312 102.207 6.312C102.483 6.312 102.615 6.336 102.843 6.42L103.047 5.46C102.843 5.352 102.639 5.316 102.351 5.316C101.619 5.316 100.971 5.844 100.503 6.672H100.467L100.371 5.484H99.4709V12ZM104.831 12V5.484H103.739V12H104.831ZM104.843 3.012H103.751V4.14H104.843V3.012ZM108.854 15C110.87 15 112.142 13.956 112.142 12.744C112.142 11.676 111.422 11.196 109.874 11.196H108.602C107.726 11.196 107.462 10.908 107.462 10.488C107.462 10.116 107.642 9.912 107.882 9.708C108.182 9.864 108.506 9.936 108.854 9.936C110.162 9.936 111.23 9.06 111.23 7.668C111.23 7.104 111.026 6.624 110.702 6.324H112.034V5.484H109.766C109.538 5.4 109.226 5.316 108.854 5.316C107.546 5.316 106.406 6.216 106.406 7.644C106.406 8.424 106.826 9.048 107.258 9.396V9.444C106.922 9.684 106.526 10.116 106.526 10.656C106.526 11.172 106.778 11.52 107.126 11.724V11.772C106.514 12.168 106.154 12.684 106.154 13.248C106.154 14.376 107.258 15 108.854 15ZM108.854 9.192C108.098 9.192 107.462 8.592 107.462 7.644C107.462 6.684 108.086 6.12 108.854 6.12C109.622 6.12 110.234 6.684 110.234 7.644C110.234 8.592 109.586 9.192 108.854 9.192ZM109.01 14.256C107.81 14.256 107.114 13.824 107.114 13.104C107.114 12.72 107.318 12.336 107.786 12C108.074 12.084 108.386 12.108 108.626 12.108H109.754C110.618 12.108 111.086 12.3 111.086 12.912C111.086 13.596 110.258 14.256 109.01 14.256ZM113.239 12H114.331V7.272C114.991 6.612 115.447 6.276 116.119 6.276C116.983 6.276 117.355 6.768 117.355 8.016V12H118.447V7.872C118.447 6.18 117.859 5.316 116.455 5.316C115.555 5.316 114.907 5.796 114.295 6.408L114.331 5.064V2.448H113.239V12ZM122.401 12.156C122.797 12.156 123.229 12.048 123.601 11.916L123.385 11.1C123.157 11.184 122.869 11.268 122.641 11.268C121.873 11.268 121.633 10.824 121.633 10.008V6.372H123.397V5.484H121.633V3.66H120.721L120.589 5.484L119.569 5.544V6.372H120.541V9.984C120.541 11.292 121.009 12.156 122.401 12.156ZM126.396 12.156C127.932 12.156 128.772 11.28 128.772 10.224C128.772 9 127.728 8.592 126.78 8.244C126.048 7.956 125.34 7.74 125.34 7.116C125.34 6.6 125.712 6.18 126.528 6.18C127.116 6.18 127.56 6.42 128.028 6.756L128.556 6.048C128.04 5.652 127.344 5.316 126.528 5.316C125.112 5.316 124.284 6.144 124.284 7.164C124.284 8.256 125.316 8.724 126.228 9.048C126.948 9.336 127.716 9.624 127.716 10.284C127.716 10.848 127.296 11.304 126.432 11.304C125.652 11.304 125.064 11.004 124.5 10.536L123.96 11.256C124.584 11.772 125.472 12.156 126.396 12.156ZM132.629 12H133.721V7.812C134.141 6.696 134.837 6.312 135.365 6.312C135.641 6.312 135.773 6.336 136.001 6.42L136.205 5.46C136.001 5.352 135.797 5.316 135.509 5.316C134.777 5.316 134.129 5.844 133.661 6.672H133.625L133.529 5.484H132.629V12ZM139.729 12.156C140.641 12.156 141.313 11.856 141.889 11.484L141.493 10.764C141.013 11.088 140.497 11.28 139.861 11.28C138.613 11.28 137.785 10.404 137.701 9H142.093C142.129 8.844 142.141 8.616 142.141 8.376C142.141 6.516 141.205 5.316 139.549 5.316C138.037 5.316 136.609 6.636 136.609 8.748C136.609 10.908 138.001 12.156 139.729 12.156ZM137.689 8.22C137.821 6.936 138.637 6.192 139.561 6.192C140.581 6.192 141.181 6.864 141.181 8.22H137.689ZM145.27 12.156C146.806 12.156 147.646 11.28 147.646 10.224C147.646 9 146.602 8.592 145.654 8.244C144.922 7.956 144.214 7.74 144.214 7.116C144.214 6.6 144.586 6.18 145.402 6.18C145.99 6.18 146.434 6.42 146.902 6.756L147.43 6.048C146.914 5.652 146.218 5.316 145.402 5.316C143.986 5.316 143.158 6.144 143.158 7.164C143.158 8.256 144.19 8.724 145.102 9.048C145.822 9.336 146.59 9.624 146.59 10.284C146.59 10.848 146.17 11.304 145.306 11.304C144.526 11.304 143.938 11.004 143.374 10.536L142.834 11.256C143.458 11.772 144.346 12.156 145.27 12.156ZM151.627 12.156C152.539 12.156 153.211 11.856 153.787 11.484L153.391 10.764C152.911 11.088 152.395 11.28 151.759 11.28C150.511 11.28 149.683 10.404 149.599 9H153.991C154.027 8.844 154.039 8.616 154.039 8.376C154.039 6.516 153.103 5.316 151.447 5.316C149.935 5.316 148.507 6.636 148.507 8.748C148.507 10.908 149.899 12.156 151.627 12.156ZM149.587 8.22C149.719 6.936 150.535 6.192 151.459 6.192C152.479 6.192 153.079 6.864 153.079 8.22H149.587ZM155.464 12H156.556V7.812C156.976 6.696 157.672 6.312 158.2 6.312C158.476 6.312 158.608 6.336 158.836 6.42L159.04 5.46C158.836 5.352 158.632 5.316 158.344 5.316C157.612 5.316 156.964 5.844 156.496 6.672H156.46L156.364 5.484H155.464V12ZM161.34 12H162.612L164.928 5.484H163.848L162.612 9.192C162.42 9.828 162.204 10.5 162.012 11.112H161.964C161.76 10.5 161.556 9.828 161.352 9.192L160.128 5.484H158.988L161.34 12ZM168.642 12.156C169.554 12.156 170.226 11.856 170.802 11.484L170.406 10.764C169.926 11.088 169.41 11.28 168.774 11.28C167.526 11.28 166.698 10.404 166.614 9H171.006C171.042 8.844 171.054 8.616 171.054 8.376C171.054 6.516 170.118 5.316 168.462 5.316C166.95 5.316 165.522 6.636 165.522 8.748C165.522 10.908 166.914 12.156 168.642 12.156ZM166.602 8.22C166.734 6.936 167.55 6.192 168.474 6.192C169.494 6.192 170.094 6.864 170.094 8.22H166.602ZM174.698 12.156C175.478 12.156 176.162 11.748 176.678 11.232H176.702L176.81 12H177.698V2.448H176.606V4.956L176.666 6.084C176.09 5.604 175.598 5.316 174.83 5.316C173.342 5.316 172.01 6.636 172.01 8.748C172.01 10.92 173.066 12.156 174.698 12.156ZM174.938 11.244C173.786 11.244 173.138 10.332 173.138 8.736C173.138 7.248 173.966 6.24 175.022 6.24C175.562 6.24 176.042 6.432 176.606 6.924V10.344C176.066 10.956 175.55 11.244 174.938 11.244Z" fill="black"/>
</svg>
