<svg width="26" height="10" viewBox="0 0 26 10" fill="none" xmlns="http://www.w3.org/2000/svg">
<path d="M2.87692 1.92H0.0929219V0.599999H7.22092V1.92H4.43692V9H2.87692V1.92ZM12.1985 9.12C11.3425 9.12 10.5705 8.936 9.88248 8.568C9.19448 8.192 8.65448 7.676 8.26248 7.02C7.87048 6.356 7.67448 5.616 7.67448 4.8C7.67448 3.984 7.87048 3.248 8.26248 2.592C8.65448 1.928 9.19448 1.412 9.88248 1.044C10.5705 0.668 11.3425 0.48 12.1985 0.48C13.0545 0.48 13.8265 0.668 14.5145 1.044C15.2025 1.412 15.7425 1.924 16.1345 2.58C16.5265 3.236 16.7225 3.976 16.7225 4.8C16.7225 5.624 16.5265 6.364 16.1345 7.02C15.7425 7.676 15.2025 8.192 14.5145 8.568C13.8265 8.936 13.0545 9.12 12.1985 9.12ZM12.1985 7.752C12.7585 7.752 13.2625 7.628 13.7105 7.38C14.1585 7.124 14.5105 6.772 14.7665 6.324C15.0225 5.868 15.1505 5.36 15.1505 4.8C15.1505 4.24 15.0225 3.736 14.7665 3.288C14.5105 2.832 14.1585 2.48 13.7105 2.232C13.2625 1.976 12.7585 1.848 12.1985 1.848C11.6385 1.848 11.1345 1.976 10.6865 2.232C10.2385 2.48 9.88648 2.832 9.63048 3.288C9.37448 3.736 9.24648 4.24 9.24648 4.8C9.24648 5.36 9.37448 5.868 9.63048 6.324C9.88648 6.772 10.2385 7.124 10.6865 7.38C11.1345 7.628 11.6385 7.752 12.1985 7.752ZM21.832 0.599999C22.56 0.599999 23.192 0.72 23.728 0.96C24.272 1.2 24.688 1.544 24.976 1.992C25.264 2.44 25.408 2.972 25.408 3.588C25.408 4.196 25.264 4.728 24.976 5.184C24.688 5.632 24.272 5.976 23.728 6.216C23.192 6.456 22.56 6.576 21.832 6.576H19.936V9H18.376V0.599999H21.832ZM21.76 5.256C22.44 5.256 22.956 5.112 23.308 4.824C23.66 4.536 23.836 4.124 23.836 3.588C23.836 3.052 23.66 2.64 23.308 2.352C22.956 2.064 22.44 1.92 21.76 1.92H19.936V5.256H21.76Z" fill="#333333"/>
</svg>
