<svg width="16" height="16" viewBox="0 0 16 16" fill="none" xmlns="http://www.w3.org/2000/svg">
<path d="M15.5 4.73763C15.5006 4.63892 15.4817 4.54108 15.4443 4.4497C15.407 4.35832 15.352 4.27521 15.2825 4.20513L12.1025 1.02513C12.0324 0.955619 11.9493 0.900625 11.8579 0.863301C11.7666 0.825978 11.6687 0.807059 11.57 0.80763C11.4713 0.807059 11.3735 0.825978 11.2821 0.863301C11.1907 0.900625 11.1076 0.955619 11.0375 1.02513L8.91501 3.14763L0.717512 11.3451C0.648001 11.4152 0.593008 11.4983 0.555684 11.5897C0.518361 11.6811 0.499442 11.7789 0.500013 11.8776V15.0576C0.500013 15.2565 0.57903 15.4473 0.719682 15.588C0.860335 15.7286 1.0511 15.8076 1.25001 15.8076H4.43001C4.53496 15.8133 4.63993 15.7969 4.73813 15.7595C4.83632 15.722 4.92555 15.6643 5.00001 15.5901L13.1525 7.39263L15.2825 5.30763C15.351 5.23494 15.4067 5.15128 15.4475 5.06013C15.4547 5.00035 15.4547 4.93991 15.4475 4.88013C15.451 4.84522 15.451 4.81004 15.4475 4.77513L15.5 4.73763ZM4.12251 14.3076H2.00001V12.1851L9.44751 4.73763L11.57 6.86013L4.12251 14.3076ZM12.6275 5.80263L10.505 3.68013L11.57 2.62263L13.685 4.73763L12.6275 5.80263Z" fill="white"/>
</svg>
